<svg xmlns="http://www.w3.org/2000/svg" viewBox="0 0 520 120" width="520" height="120">
  <!-- Tree icon scaled to fit ~36px tall, centered vertically -->
  <g transform="translate(0, 8) scale(0.28)">
    <path fill="#38b6ff" d="M 122.6 164.2C110.4 164.2 98.2 164.2 85.9 164.2C119.8 114.9 153.6 65.8 187.6 16.6C221.4 65.8 255.2 114.9 289.1 164.2C276.9 164.2 264.8 164.2 252.8 164.2L187.7 69.6Z"/>
    <path fill="#38b6ff" d="M 122.6 260C110.4 260 98.2 260 85.9 260C119.8 210.8 153.6 161.7 187.6 112.4C221.4 161.7 255.2 210.8 289.1 260C276.9 260 264.8 260 252.8 260L187.7 165.4Z"/>
    <path fill="#38b6ff" d="M 122.6 358.4C110.4 358.4 98.2 358.4 85.9 358.4C119.8 309.2 153.6 260.1 187.6 210.8C221.4 260.1 255.2 309.2 289.1 358.4C276.9 358.4 264.8 358.4 252.8 358.4L187.7 263.8Z"/>
  </g>
  <!-- Wordmark: "sovvrn" in white -->
  <text x="120" y="78" font-family="'Plus Jakarta Sans', 'Inter', 'Helvetica Neue', Arial, sans-serif" font-weight="700" font-size="52" letter-spacing="3" fill="#FFFFFF">sovvrn</text>
</svg>
