<svg xmlns="http://www.w3.org/2000/svg" viewBox="0 0 1440 300" preserveAspectRatio="none">
  <g fill="none" stroke="#38b6ff" stroke-width="1" opacity="0.07">
    <path d="M0,28 Q180,12 360,32 Q540,52 720,38 Q900,22 1080,42 Q1260,58 1440,30"/>
    <path d="M0,62 Q240,45 480,68 Q720,88 960,55 Q1140,38 1320,65 L1440,72"/>
    <path d="M0,98 Q200,78 400,105 Q600,128 800,95 Q1000,72 1200,100 Q1350,118 1440,108"/>
    <path d="M0,130 Q300,112 540,138 Q780,160 960,125 Q1100,108 1260,140 L1440,148"/>
    <path d="M0,165 Q150,180 350,158 Q550,140 750,172 Q950,195 1150,162 Q1300,148 1440,175"/>
    <path d="M0,198 Q280,215 520,192 Q760,175 940,205 Q1120,228 1300,195 L1440,202"/>
    <path d="M0,230 Q200,218 420,238 Q640,255 860,225 Q1060,208 1240,240 Q1380,252 1440,245"/>
    <path d="M0,258 Q340,242 600,265 Q860,282 1080,252 Q1220,238 1360,262 L1440,268"/>
    <path d="M0,285 Q260,275 480,292 Q700,305 920,278 Q1140,262 1320,288 L1440,295"/>
    <ellipse cx="680" cy="145" rx="140" ry="38" transform="rotate(-5 680 145)"/>
    <ellipse cx="1100" cy="230" rx="95" ry="28" transform="rotate(4 1100 230)"/>
  </g>
</svg>
