<svg xmlns="http://www.w3.org/2000/svg" viewBox="0 0 1000 800" width="1000" height="800">
  <g fill="none" stroke="#E0E4ED" stroke-width="0.7" opacity="0.4">
    <!-- Cluster 1: top-left rolling hills -->
    <path d="M -50 180 C 80 140, 180 200, 280 160 C 380 120, 450 190, 560 170 C 670 150, 750 100, 880 140 C 940 160, 1000 130, 1050 150"/>
    <path d="M -30 220 C 90 180, 200 250, 310 200 C 420 150, 480 230, 590 210 C 700 190, 780 140, 900 180 C 960 200, 1020 170, 1060 190"/>
    <path d="M -20 260 C 100 230, 220 290, 340 250 C 460 210, 510 270, 610 250 C 710 230, 800 190, 920 220 C 970 240, 1030 210, 1070 230"/>
    <path d="M -40 300 C 70 270, 190 330, 300 290 C 410 250, 500 310, 620 290 C 740 270, 820 230, 940 260 C 990 280, 1040 260, 1080 270"/>

    <!-- Cluster 2: center basin -->
    <path d="M 100 380 C 200 420, 320 360, 450 400 C 580 440, 680 370, 800 410 C 870 430, 920 400, 1000 420"/>
    <path d="M 60 420 C 170 460, 300 400, 440 440 C 570 480, 660 410, 780 450 C 860 470, 930 440, 1020 460"/>
    <path d="M 80 460 C 190 490, 310 440, 450 480 C 580 510, 670 450, 790 490 C 870 510, 940 480, 1030 500"/>

    <!-- Cluster 3: concentric feature upper-right -->
    <path d="M 600 80 C 680 60, 760 100, 820 70 C 880 40, 940 80, 1000 60"/>
    <path d="M 580 120 C 670 90, 770 140, 840 110 C 910 80, 960 120, 1020 100"/>
    <path d="M 560 150 C 660 130, 780 170, 850 140 C 920 110, 970 150, 1040 140"/>

    <!-- Cluster 4: bottom sweeping curves -->
    <path d="M -40 550 C 100 520, 250 580, 400 540 C 550 500, 650 570, 800 550 C 900 535, 960 560, 1050 540"/>
    <path d="M -20 590 C 120 560, 280 620, 430 580 C 580 540, 680 610, 820 590 C 910 575, 970 600, 1060 580"/>
    <path d="M -30 630 C 110 610, 270 660, 420 630 C 570 600, 690 650, 830 630 C 920 615, 980 640, 1070 620"/>
    <path d="M -10 670 C 130 650, 290 700, 440 670 C 590 640, 710 690, 840 670 C 930 660, 990 680, 1070 660"/>

    <!-- Cluster 5: tight contours — simulates a hilltop -->
    <path d="M 200 680 C 260 650, 340 690, 400 660 C 460 630, 520 670, 580 650"/>
    <path d="M 220 710 C 280 690, 350 720, 410 700 C 470 680, 530 710, 590 690"/>
    <path d="M 240 740 C 300 720, 370 750, 430 730 C 490 710, 540 740, 600 720"/>

    <!-- Cluster 6: upper-left nested ovals -->
    <path d="M 50 40 C 120 20, 200 60, 270 30 C 340 0, 400 40, 460 20"/>
    <path d="M 30 80 C 110 55, 210 95, 290 70 C 370 45, 420 80, 480 60"/>
    <path d="M 20 110 C 100 90, 220 130, 310 100 C 400 70, 440 110, 500 100"/>

    <!-- Sparse singles for organic feel -->
    <path d="M 700 300 C 760 280, 830 320, 900 290 C 950 270, 990 300, 1050 280"/>
    <path d="M 650 340 C 730 320, 810 360, 880 330 C 940 310, 1000 340, 1060 330"/>
    <path d="M 150 490 C 250 470, 350 510, 450 480 C 550 450, 620 490, 700 470"/>
  </g>
</svg>
