<svg xmlns="http://www.w3.org/2000/svg" viewBox="0 0 1200 900" width="1200" height="900">
  <!-- Hill Cluster 1 — large, left-center (~380, 320) — 11 nested contours -->
  <!-- Index contour 1 (outermost) -->
  <path d="M 140,180 C 175,130 280,95 400,110 C 520,125 610,175 640,260 C 670,345 650,440 600,510 C 550,580 440,610 340,595 C 240,580 160,520 130,440 C 100,360 105,230 140,180 Z"
        fill="none" stroke="#C8CDD8" stroke-width="0.9" opacity="0.5" stroke-linecap="round" stroke-linejoin="round"/>
  <!-- Intermediate 2 -->
  <path d="M 165,205 C 195,160 290,130 395,142 C 500,154 580,198 608,272 C 636,346 620,425 575,488 C 530,551 430,578 338,565 C 246,552 178,498 152,425 C 126,352 135,250 165,205 Z"
        fill="none" stroke="#D8DCE6" stroke-width="0.4" opacity="0.3" stroke-linecap="round" stroke-linejoin="round"/>
  <!-- Intermediate 3 -->
  <path d="M 190,228 C 216,188 302,162 392,173 C 482,184 554,222 578,286 C 602,350 590,418 550,470 C 510,522 418,546 336,535 C 254,524 196,476 174,412 C 152,348 164,268 190,228 Z"
        fill="none" stroke="#D8DCE6" stroke-width="0.4" opacity="0.3" stroke-linecap="round" stroke-linejoin="round"/>
  <!-- Intermediate 4 -->
  <path d="M 215,252 C 238,216 312,194 388,204 C 464,214 528,246 548,300 C 568,354 558,410 525,452 C 492,494 410,515 338,506 C 266,497 214,456 198,400 C 182,344 192,288 215,252 Z"
        fill="none" stroke="#D8DCE6" stroke-width="0.4" opacity="0.3" stroke-linecap="round" stroke-linejoin="round"/>
  <!-- Intermediate 5 -->
  <path d="M 240,275 C 260,244 322,226 385,234 C 448,242 502,268 518,314 C 534,360 526,402 498,436 C 470,470 402,488 340,480 C 278,472 234,438 222,390 C 210,342 220,306 240,275 Z"
        fill="none" stroke="#D8DCE6" stroke-width="0.4" opacity="0.3" stroke-linecap="round" stroke-linejoin="round"/>
  <!-- Index contour 6 -->
  <path d="M 268,298 C 284,272 334,256 382,263 C 430,270 476,292 490,330 C 504,368 496,398 472,422 C 448,446 394,460 344,454 C 294,448 256,420 246,380 C 236,340 252,324 268,298 Z"
        fill="none" stroke="#C8CDD8" stroke-width="0.9" opacity="0.5" stroke-linecap="round" stroke-linejoin="round"/>
  <!-- Intermediate 7 -->
  <path d="M 292,318 C 305,298 342,285 380,290 C 418,295 452,312 462,342 C 472,372 466,395 448,412 C 430,429 392,438 354,434 C 316,430 284,410 276,380 C 268,350 279,338 292,318 Z"
        fill="none" stroke="#D8DCE6" stroke-width="0.4" opacity="0.3" stroke-linecap="round" stroke-linejoin="round"/>
  <!-- Intermediate 8 -->
  <path d="M 312,335 C 322,320 350,310 378,314 C 406,318 430,330 438,352 C 446,374 440,392 426,404 C 412,416 386,422 362,418 C 338,414 316,400 310,378 C 304,356 302,350 312,335 Z"
        fill="none" stroke="#D8DCE6" stroke-width="0.4" opacity="0.3" stroke-linecap="round" stroke-linejoin="round"/>
  <!-- Intermediate 9 -->
  <path d="M 332,348 C 340,338 358,332 376,335 C 394,338 410,346 416,360 C 422,374 418,386 408,394 C 398,402 380,406 364,403 C 348,400 336,390 332,376 C 328,362 324,358 332,348 Z"
        fill="none" stroke="#D8DCE6" stroke-width="0.4" opacity="0.3" stroke-linecap="round" stroke-linejoin="round"/>
  <!-- Intermediate 10 -->
  <path d="M 350,358 C 355,352 366,348 378,350 C 390,352 398,358 400,367 C 402,376 398,384 390,388 C 382,392 372,392 364,389 C 356,386 350,378 349,370 C 348,362 345,364 350,358 Z"
        fill="none" stroke="#D8DCE6" stroke-width="0.4" opacity="0.3" stroke-linecap="round" stroke-linejoin="round"/>
  <!-- Index contour 11 (peak) -->
  <path d="M 362,364 C 366,360 374,358 380,360 C 386,362 390,366 390,372 C 390,378 386,382 380,383 C 374,384 368,382 365,378 C 362,374 360,368 362,364 Z"
        fill="none" stroke="#C8CDD8" stroke-width="0.9" opacity="0.5" stroke-linecap="round" stroke-linejoin="round"/>

  <!-- Hill Cluster 2 — medium, right (~830, 380) — 8 nested contours, saddle toward cluster 1 -->
  <!-- Index contour 1 (outermost) -->
  <path d="M 660,240 C 700,195 790,170 890,190 C 990,210 1060,275 1075,360 C 1090,445 1050,530 980,575 C 910,620 810,630 730,595 C 650,560 610,490 615,410 C 620,330 620,285 660,240 Z"
        fill="none" stroke="#C8CDD8" stroke-width="0.9" opacity="0.5" stroke-linecap="round" stroke-linejoin="round"/>
  <!-- Intermediate 2 -->
  <path d="M 690,270 C 722,232 800,212 885,228 C 970,244 1028,298 1040,370 C 1052,442 1020,510 958,548 C 896,586 808,594 740,564 C 672,534 640,474 644,404 C 648,334 658,308 690,270 Z"
        fill="none" stroke="#D8DCE6" stroke-width="0.4" opacity="0.3" stroke-linecap="round" stroke-linejoin="round"/>
  <!-- Intermediate 3 -->
  <path d="M 718,298 C 745,266 810,250 880,264 C 950,278 1000,322 1008,382 C 1016,442 990,496 938,526 C 886,556 806,560 750,535 C 694,510 668,460 672,400 C 676,340 691,330 718,298 Z"
        fill="none" stroke="#D8DCE6" stroke-width="0.4" opacity="0.3" stroke-linecap="round" stroke-linejoin="round"/>
  <!-- Intermediate 4 -->
  <path d="M 745,325 C 768,298 822,286 876,298 C 930,310 972,346 978,396 C 984,446 962,486 918,510 C 874,534 810,536 764,514 C 718,492 698,448 702,398 C 706,348 722,352 745,325 Z"
        fill="none" stroke="#D8DCE6" stroke-width="0.4" opacity="0.3" stroke-linecap="round" stroke-linejoin="round"/>
  <!-- Intermediate 5 -->
  <path d="M 770,350 C 790,328 834,318 874,328 C 914,338 946,368 950,408 C 954,448 936,478 900,496 C 864,514 818,516 782,498 C 746,480 730,442 734,402 C 738,362 750,372 770,350 Z"
        fill="none" stroke="#D8DCE6" stroke-width="0.4" opacity="0.3" stroke-linecap="round" stroke-linejoin="round"/>
  <!-- Index contour 6 -->
  <path d="M 798,374 C 812,356 846,348 872,356 C 898,364 920,386 922,414 C 924,442 910,464 886,478 C 862,492 828,492 806,478 C 784,464 770,440 772,414 C 774,388 784,392 798,374 Z"
        fill="none" stroke="#C8CDD8" stroke-width="0.9" opacity="0.5" stroke-linecap="round" stroke-linejoin="round"/>
  <!-- Intermediate 7 -->
  <path d="M 820,394 C 830,382 852,376 870,382 C 888,388 902,402 904,420 C 906,438 896,452 878,460 C 860,468 838,466 824,456 C 810,446 802,432 804,416 C 806,400 810,406 820,394 Z"
        fill="none" stroke="#D8DCE6" stroke-width="0.4" opacity="0.3" stroke-linecap="round" stroke-linejoin="round"/>
  <!-- Index contour 8 (peak) -->
  <path d="M 840,410 C 846,404 858,400 868,404 C 878,408 886,416 886,426 C 886,436 878,444 868,446 C 858,448 848,444 842,438 C 836,432 834,420 840,410 Z"
        fill="none" stroke="#C8CDD8" stroke-width="0.9" opacity="0.5" stroke-linecap="round" stroke-linejoin="round"/>

  <!-- Hill Cluster 3 — small, bottom-left (~280, 720) — 6 nested contours -->
  <!-- Index contour 1 (outermost) -->
  <path d="M 140,640 C 170,600 240,580 320,595 C 400,610 450,660 448,720 C 446,780 400,830 340,850 C 280,870 200,855 160,810 C 120,765 110,680 140,640 Z"
        fill="none" stroke="#C8CDD8" stroke-width="0.9" opacity="0.5" stroke-linecap="round" stroke-linejoin="round"/>
  <!-- Intermediate 2 -->
  <path d="M 170,662 C 194,630 250,614 315,626 C 380,638 422,678 420,725 C 418,772 382,810 330,826 C 278,842 214,830 182,792 C 150,754 146,694 170,662 Z"
        fill="none" stroke="#D8DCE6" stroke-width="0.4" opacity="0.3" stroke-linecap="round" stroke-linejoin="round"/>
  <!-- Intermediate 3 -->
  <path d="M 198,684 C 218,658 262,646 312,656 C 362,666 396,696 394,732 C 392,768 364,796 322,808 C 280,820 230,810 204,778 C 178,746 178,710 198,684 Z"
        fill="none" stroke="#D8DCE6" stroke-width="0.4" opacity="0.3" stroke-linecap="round" stroke-linejoin="round"/>
  <!-- Intermediate 4 -->
  <path d="M 224,704 C 240,684 274,674 310,682 C 346,690 372,714 370,742 C 368,770 348,792 316,800 C 284,808 248,798 228,774 C 208,750 208,724 224,704 Z"
        fill="none" stroke="#D8DCE6" stroke-width="0.4" opacity="0.3" stroke-linecap="round" stroke-linejoin="round"/>
  <!-- Intermediate 5 -->
  <path d="M 250,722 C 262,706 286,698 310,704 C 334,710 352,728 350,750 C 348,772 334,788 312,794 C 290,800 266,792 252,774 C 238,756 238,738 250,722 Z"
        fill="none" stroke="#D8DCE6" stroke-width="0.4" opacity="0.3" stroke-linecap="round" stroke-linejoin="round"/>
  <!-- Index contour 6 (peak) -->
  <path d="M 274,740 C 282,730 296,726 310,730 C 324,734 334,744 332,758 C 330,772 320,782 306,784 C 292,786 280,778 274,766 C 268,754 266,750 274,740 Z"
        fill="none" stroke="#C8CDD8" stroke-width="0.9" opacity="0.5" stroke-linecap="round" stroke-linejoin="round"/>

  <!-- Scattered partial contours for organic fill — semi-closed arcs -->
  <!-- Upper-right terrain fragment -->
  <path d="M 920,60 C 960,40 1040,50 1090,85 C 1140,120 1160,180 1130,230 C 1100,280 1040,290 990,270"
        fill="none" stroke="#D8DCE6" stroke-width="0.4" opacity="0.25" stroke-linecap="round" stroke-linejoin="round"/>
  <path d="M 950,85 C 982,68 1030,76 1068,102 C 1106,128 1120,172 1098,210 C 1076,248 1032,258 996,244"
        fill="none" stroke="#D8DCE6" stroke-width="0.4" opacity="0.25" stroke-linecap="round" stroke-linejoin="round"/>
  <path d="M 978,108 C 1002,96 1028,102 1050,122 C 1072,142 1080,172 1066,198 C 1052,224 1024,232 1002,222"
        fill="none" stroke="#C8CDD8" stroke-width="0.9" opacity="0.4" stroke-linecap="round" stroke-linejoin="round"/>

  <!-- Lower-right terrain fragment -->
  <path d="M 880,680 C 920,650 990,655 1040,690 C 1090,725 1110,790 1080,840 C 1050,890 980,900 930,875"
        fill="none" stroke="#D8DCE6" stroke-width="0.4" opacity="0.25" stroke-linecap="round" stroke-linejoin="round"/>
  <path d="M 910,705 C 942,680 996,684 1034,712 C 1072,740 1086,792 1062,832 C 1038,872 982,880 944,860"
        fill="none" stroke="#D8DCE6" stroke-width="0.4" opacity="0.25" stroke-linecap="round" stroke-linejoin="round"/>
  <path d="M 938,728 C 962,710 1002,714 1028,736 C 1054,758 1064,796 1046,826 C 1028,856 990,862 962,846"
        fill="none" stroke="#C8CDD8" stroke-width="0.9" opacity="0.4" stroke-linecap="round" stroke-linejoin="round"/>

  <!-- Top-center single contour arc -->
  <path d="M 480,30 C 530,15 600,25 650,60 C 700,95 720,150 690,195 C 660,240 600,250 555,230"
        fill="none" stroke="#D8DCE6" stroke-width="0.4" opacity="0.2" stroke-linecap="round" stroke-linejoin="round"/>
  <path d="M 510,55 C 548,42 600,50 636,78 C 672,106 686,148 662,184 C 638,220 592,228 558,212"
        fill="none" stroke="#D8DCE6" stroke-width="0.4" opacity="0.2" stroke-linecap="round" stroke-linejoin="round"/>

  <!-- Bottom-center fragment -->
  <path d="M 520,820 C 560,800 620,808 660,838 C 700,868 712,910 690,940"
        fill="none" stroke="#D8DCE6" stroke-width="0.4" opacity="0.2" stroke-linecap="round" stroke-linejoin="round"/>
  <path d="M 548,835 C 578,820 624,826 654,850 C 684,874 692,908 676,932"
        fill="none" stroke="#C8CDD8" stroke-width="0.9" opacity="0.35" stroke-linecap="round" stroke-linejoin="round"/>
</svg>
