<svg xmlns="http://www.w3.org/2000/svg" xmlns:xlink="http://www.w3.org/1999/xlink" width="500" zoomAndPan="magnify" viewBox="0 0 375 374.999991" height="500" preserveAspectRatio="xMidYMid meet" version="1.0"><path fill="#e9e9e9" d="M 1.289062 374.984375 L 0 374.984375 L 0 371.226562 C 21.734375 338.425781 45.71875 330.207031 63.683594 321.660156 C 77.398438 315.128906 87.503906 308.46875 89.828125 289.382812 C 91.625 274.578125 84.546875 262.40625 77.5625 249.578125 C 66.621094 229.511719 55.679688 207.992188 75.367188 173.757812 C 79.375 166.773438 83.042969 161.835938 85.890625 157.539062 C 88.59375 153.472656 90.554688 150.042969 91.242188 145.871094 C 92.65625 137.289062 88.847656 125.804688 76.328125 100.460938 C 74.367188 96.484375 68.796875 84.964844 67.546875 73.351562 C 66.695312 65.316406 67.910156 57.242188 73.515625 51.417969 C 77.234375 47.554688 82.894531 44.632812 91.261719 43.453125 C 103.324219 41.730469 121.179688 43.597656 147.195312 51.328125 C 164.886719 56.570312 173.523438 56.660156 179.035156 53.503906 C 182.628906 51.453125 184.804688 48.023438 187.382812 44.035156 C 190.359375 39.390625 193.769531 33.964844 199.882812 28.667969 C 202.460938 26.433594 206.34375 25.417969 211.078125 25.164062 C 217.628906 24.820312 225.882812 25.890625 234.28125 26.417969 C 246.3125 27.179688 258.667969 26.980469 266.179688 19.214844 C 270.117188 15.148438 272.65625 9.035156 273.183594 0 L 276.300781 0 C 275.738281 10.105469 272.78125 16.890625 268.429688 21.390625 C 260.300781 29.773438 247.054688 30.355469 234.082031 29.539062 C 225.828125 29.011719 217.683594 27.957031 211.242188 28.285156 C 207.320312 28.503906 204.054688 29.175781 201.933594 31.027344 C 196.089844 36.085938 192.84375 41.277344 190.011719 45.722656 C 187.128906 50.183594 184.605469 53.921875 180.578125 56.226562 C 174.664062 59.617188 165.339844 59.964844 146.308594 54.320312 C 125.097656 48.023438 109.441406 45.648438 97.972656 46.011719 C 86.960938 46.355469 79.957031 49.222656 75.765625 53.578125 C 70.8125 58.730469 69.886719 65.914062 70.667969 73.027344 C 71.867188 84.183594 77.234375 95.253906 79.121094 99.082031 C 92.132812 125.425781 95.796875 137.453125 94.328125 146.378906 C 93.566406 150.96875 91.476562 154.796875 88.503906 159.277344 C 85.671875 163.523438 82.042969 168.40625 78.070312 175.300781 C 59.183594 208.175781 69.796875 228.820312 80.300781 248.089844 C 87.613281 261.496094 94.796875 274.289062 92.929688 289.765625 C 90.441406 310.210938 79.738281 317.488281 65.023438 324.472656 C 47.0625 333.019531 22.933594 341.199219 1.289062 374.984375 Z M 1.289062 374.984375 " fill-opacity="1" fill-rule="evenodd"/><path fill="#e9e9e9" d="M 0 326.050781 L 0 322.839844 C 16.691406 319.101562 29.082031 314.855469 38.082031 310.121094 C 47.445312 305.207031 53.085938 299.796875 56.097656 293.902344 C 60.617188 285.066406 59.183594 275.214844 55.828125 264.582031 C 52.324219 253.515625 46.738281 241.613281 43.035156 229.128906 C 31.605469 190.574219 43.433594 171.832031 53.886719 155.941406 C 59.871094 146.851562 65.460938 138.757812 65.386719 128.128906 C 65.351562 121.050781 62.792969 112.867188 56.316406 102.527344 C 39.804688 76.203125 40.386719 56.117188 49.3125 42.527344 C 62.667969 22.152344 95.234375 16.257812 118.984375 25.925781 C 133.042969 31.640625 140.574219 34.308594 147.433594 32.859375 C 154.34375 31.40625 160.511719 25.871094 171.945312 15.65625 C 181.234375 7.347656 191.265625 5.824219 201.046875 6.257812 C 207.339844 6.550781 213.527344 7.65625 219.332031 8.183594 C 226.136719 8.816406 232.378906 8.726562 237.496094 5.117188 C 239.273438 3.863281 240.925781 2.195312 242.394531 0 L 246.058594 0 C 244.0625 3.445312 241.777344 5.914062 239.292969 7.675781 C 233.574219 11.683594 226.644531 12.011719 219.042969 11.304688 C 213.292969 10.757812 207.160156 9.671875 200.917969 9.378906 C 191.882812 8.980469 182.59375 10.324219 174.03125 17.980469 C 161.984375 28.757812 155.34375 34.398438 148.085938 35.921875 C 140.792969 37.445312 132.734375 34.890625 117.804688 28.8125 C 95.378906 19.683594 64.554688 25 51.925781 44.234375 C 43.507812 57.078125 43.363281 76 58.949219 100.875 C 65.839844 111.871094 68.472656 120.597656 68.507812 128.109375 C 68.582031 139.394531 62.828125 148.03125 56.496094 157.664062 C 46.429688 172.996094 35 191.066406 46.03125 228.242188 C 50.472656 243.246094 57.640625 257.398438 60.636719 270.296875 C 62.722656 279.257812 62.8125 287.640625 58.894531 295.316406 C 52.667969 307.488281 36.066406 318.050781 0 326.050781 Z M 0 326.050781 " fill-opacity="1" fill-rule="evenodd"/><path fill="#e9e9e9" d="M 0 289.78125 L 0 284.738281 C 24.910156 252.191406 17.742188 223.742188 14.007812 197.921875 C 11.085938 177.785156 10.234375 159.207031 26.816406 141.445312 C 33.019531 134.804688 35.632812 129.234375 35.941406 124.082031 C 36.25 118.964844 34.289062 114.285156 31.550781 109.457031 C 25.636719 99.023438 16.292969 87.921875 15.511719 71.011719 C 14.097656 40.566406 20.882812 24.546875 32.367188 16.347656 C 43.816406 8.183594 60.144531 7.765625 78.398438 8.925781 C 96.121094 10.050781 115.679688 12.625 134.132812 10.339844 C 144.964844 9.015625 155.398438 6.003906 164.8125 0 L 170.328125 0 C 159.535156 8.039062 147.285156 11.882812 134.511719 13.445312 C 115.882812 15.746094 96.105469 13.191406 78.195312 12.046875 C 60.761719 10.921875 45.121094 11.085938 34.183594 18.886719 C 23.296875 26.652344 17.289062 42 18.632812 70.867188 C 19.394531 87.195312 28.558594 97.847656 34.253906 107.914062 C 37.320312 113.304688 39.40625 118.546875 39.0625 124.28125 C 38.71875 129.976562 35.976562 136.21875 29.101562 143.585938 C 9.234375 164.867188 15.855469 187.4375 19.359375 212.53125 C 22.605469 235.84375 23.441406 261.28125 0 289.78125 Z M 0 289.78125 " fill-opacity="1" fill-rule="evenodd"/><path fill="#e9e9e9" d="M 47.136719 374.984375 L 42.453125 374.984375 C 68.945312 351.269531 85.019531 338.734375 95.324219 329.246094 C 107.351562 318.121094 111.328125 311.265625 115.007812 295.007812 C 121.378906 266.976562 109.675781 253.878906 99.242188 242.773438 C 92.566406 235.699219 86.453125 229.3125 85.144531 220.800781 C 84.257812 215.050781 85.507812 208.300781 90.351562 199.683594 C 95.34375 190.8125 109.078125 177.222656 117.351562 160.75 C 125.386719 144.765625 128.164062 125.988281 111.851562 106.265625 C 102.746094 95.269531 97.882812 87.304688 96.269531 81.679688 C 95.015625 77.378906 95.578125 74.277344 97.339844 72.066406 C 98.515625 70.578125 100.257812 69.488281 102.546875 68.746094 C 105.59375 67.765625 109.640625 67.402344 114.429688 67.511719 C 131.554688 67.875 158.425781 73.988281 180.632812 74.132812 C 194.855469 74.242188 207.160156 71.992188 213.289062 63.664062 C 219.914062 54.667969 225.355469 50.257812 230.636719 48.316406 C 235.96875 46.355469 241.195312 46.882812 247.472656 47.953125 C 255.328125 49.3125 264.945312 51.507812 278.898438 50.003906 C 295.207031 48.242188 307.582031 39.316406 316.726562 28.847656 C 325.269531 19.085938 330.984375 8 334.453125 0 L 337.828125 0 C 334.359375 8.292969 328.300781 20.355469 319.085938 30.898438 C 309.46875 41.910156 296.386719 51.253906 279.242188 53.105469 C 264.910156 54.664062 255.019531 52.433594 246.945312 51.035156 C 241.269531 50.058594 236.53125 49.476562 231.707031 51.253906 C 226.84375 53.050781 221.925781 57.222656 215.8125 65.515625 C 209.171875 74.53125 196 77.363281 180.617188 77.273438 C 158.390625 77.109375 131.503906 70.996094 114.355469 70.632812 C 110.527344 70.558594 107.191406 70.757812 104.542969 71.429688 C 102.238281 71.992188 100.476562 72.898438 99.515625 74.367188 C 98.191406 76.402344 98.464844 79.359375 100.257812 83.585938 C 102.453125 88.71875 106.953125 95.46875 114.246094 104.289062 C 131.59375 125.222656 128.691406 145.164062 120.144531 162.144531 C 111.835938 178.675781 98.082031 192.316406 93.074219 201.207031 C 88.683594 209.027344 87.433594 215.105469 88.230469 220.332031 C 89.445312 228.242188 95.304688 234.046875 101.511719 240.632812 C 112.523438 252.335938 124.769531 266.160156 118.058594 295.699219 C 114.191406 312.714844 110.039062 319.898438 97.429688 331.53125 C 87.46875 340.730469 72.121094 352.757812 47.136719 374.984375 Z M 47.136719 374.984375 " fill-opacity="1" fill-rule="evenodd"/><path fill="#e9e9e9" d="M 129.742188 89.210938 C 131.648438 86.722656 134.421875 85.035156 137.832031 84.019531 C 142.625 82.585938 148.71875 82.441406 155.304688 83.042969 C 171.21875 84.492188 190.160156 90.261719 199.847656 91.078125 C 212.929688 92.203125 217.355469 84.671875 221.871094 76.925781 C 226.953125 68.253906 232.125 59.308594 246.875 58.984375 C 262.167969 58.65625 270.625 62.972656 274.269531 69.359375 C 277.933594 75.785156 276.847656 84.546875 272.511719 93.5625 C 264.144531 110.910156 243.878906 129.195312 225.992188 132.480469 C 177.039062 141.460938 166.082031 171.886719 143.640625 230.238281 C 141.117188 236.804688 133.441406 239.542969 125.078125 238.710938 C 113.738281 237.566406 101.4375 229.929688 100.257812 217.988281 C 99.496094 210.1875 103.488281 200.371094 116.136719 189.25 C 140.464844 167.914062 148.25 151.242188 148.394531 137.886719 C 148.519531 124.644531 141.136719 114.808594 135.402344 107.132812 C 132.226562 102.90625 129.558594 99.261719 128.617188 96.105469 C 127.875 93.582031 128.109375 91.296875 129.742188 89.210938 Z M 132.210938 91.113281 C 130.957031 92.730469 131.210938 94.527344 132.136719 96.578125 C 133.28125 99.132812 135.457031 102 137.90625 105.265625 C 143.964844 113.394531 151.660156 123.882812 151.515625 137.90625 C 151.367188 151.824219 143.53125 169.367188 118.203125 191.609375 C 106.628906 201.753906 102.671875 210.570312 103.378906 217.699219 C 104.394531 228.167969 115.445312 234.59375 125.386719 235.605469 C 132.210938 236.277344 138.667969 234.484375 140.738281 229.113281 C 163.707031 169.382812 175.335938 138.597656 225.429688 129.414062 C 242.484375 126.277344 261.734375 108.75 269.699219 92.203125 C 273.527344 84.257812 274.796875 76.5625 271.566406 70.902344 C 268.300781 65.207031 260.589844 61.832031 246.949219 62.121094 C 233.648438 62.394531 229.148438 70.6875 224.578125 78.503906 C 219.480469 87.234375 214.324219 95.46875 199.574219 94.199219 C 189.886719 93.363281 170.945312 87.613281 155.015625 86.160156 C 149.882812 85.691406 145.054688 85.671875 140.992188 86.453125 C 137.234375 87.179688 134.152344 88.59375 132.210938 91.117188 Z M 132.210938 91.113281 " fill-opacity="1" fill-rule="evenodd"/><path fill="#e9e9e9" d="M 374.984375 317.578125 L 374.984375 322.457031 C 367.796875 314.039062 363.699219 307.4375 360.03125 301.359375 C 356.113281 294.84375 352.703125 288.984375 346.335938 282.144531 C 345.9375 281.710938 345.609375 281.21875 345.28125 280.621094 C 342.90625 276.355469 339.113281 266.234375 273.164062 240.34375 C 268.898438 238.65625 264.382812 233.664062 259.9375 226.917969 C 253.585938 217.246094 247.273438 203.964844 241.558594 192.535156 C 237.804688 185.042969 234.335938 178.347656 231.308594 174.066406 C 230.363281 172.742188 229.457031 171.652344 228.621094 170.871094 C 227.988281 170.292969 227.425781 169.875 226.863281 169.800781 C 200.464844 165.917969 188.980469 183.464844 179.816406 203.382812 C 174.101562 215.796875 169.3125 229.167969 162.671875 239.308594 C 158.082031 246.3125 152.621094 251.808594 145.472656 254.546875 C 139.613281 256.816406 136.964844 261.226562 135.710938 267.105469 C 134.367188 273.472656 134.605469 281.472656 134.53125 290.472656 C 134.441406 304.371094 133.660156 320.570312 125.859375 336.863281 C 119.636719 349.871094 108.933594 362.972656 90.445312 374.984375 L 84.566406 374.984375 C 105.011719 362.664062 116.550781 349.074219 123.046875 335.519531 C 130.628906 319.683594 131.320312 303.933594 131.410156 290.453125 C 131.484375 281.199219 131.285156 273 132.664062 266.46875 C 134.152344 259.464844 137.398438 254.3125 144.363281 251.644531 C 152.585938 248.46875 158.300781 241.25 163.160156 232.414062 C 168.1875 223.25 172.269531 212.328125 176.96875 202.078125 C 186.730469 180.867188 199.230469 162.582031 227.316406 166.699219 C 228.785156 166.917969 230.507812 168.097656 232.285156 170.21875 C 234.519531 172.867188 237.039062 177.078125 239.742188 182.15625 C 245.910156 193.714844 253.132812 209.863281 260.480469 221.910156 C 265.160156 229.601562 269.789062 235.660156 274.304688 237.421875 C 341.90625 263.984375 345.574219 274.722656 348.003906 279.097656 C 348.203125 279.460938 348.382812 279.769531 348.621094 280.023438 C 355.152344 287.042969 358.671875 293.066406 362.71875 299.742188 C 365.875 304.988281 369.375 310.664062 374.980469 317.578125 Z M 374.984375 317.578125 " fill-opacity="1" fill-rule="evenodd"/><path fill="#e9e9e9" d="M 374.984375 335.957031 L 374.984375 339.351562 C 374.691406 339.242188 374.402344 339.113281 374.113281 338.988281 C 365.621094 335.269531 356.476562 327.847656 347.167969 319.011719 C 333.433594 305.984375 319.285156 289.855469 306.039062 278.40625 C 297.457031 271.003906 289.328125 265.542969 281.945312 264.417969 C 242.03125 258.269531 232.394531 232.179688 224.921875 213.398438 C 223.015625 208.59375 221.253906 204.292969 219.097656 200.988281 C 216.175781 196.492188 212.527344 193.988281 206.503906 195.113281 C 197.199219 196.835938 197.109375 203.277344 196.21875 212.203125 C 195.457031 219.695312 194.367188 228.859375 188.488281 238.820312 C 182.664062 248.726562 172.105469 259.429688 152.3125 270.023438 C 145.398438 273.726562 143.65625 279.097656 143.910156 285.738281 C 144.09375 290.507812 145.273438 295.898438 146.414062 301.773438 C 148.628906 313.1875 150.753906 326.414062 146.070312 340.636719 C 142.460938 351.597656 134.804688 363.1875 119.964844 374.984375 L 114.847656 374.984375 C 131.15625 362.84375 139.375 350.941406 143.097656 339.65625 C 147.59375 326.015625 145.472656 313.3125 143.351562 302.375 C 142.171875 296.316406 140.992188 290.78125 140.792969 285.863281 C 140.484375 277.988281 142.625 271.65625 150.84375 267.265625 C 188.925781 246.890625 191.664062 226.226562 193.117188 211.894531 C 193.460938 208.390625 193.75 205.269531 194.40625 202.585938 C 195.128906 199.648438 196.308594 197.234375 198.378906 195.382812 C 200.136719 193.824219 202.53125 192.660156 205.925781 192.042969 C 213.457031 190.648438 218.082031 193.660156 221.726562 199.285156 C 223.960938 202.730469 225.828125 207.230469 227.824219 212.238281 C 235.007812 230.273438 244.117188 255.4375 282.417969 261.316406 C 290.253906 262.53125 298.980469 268.191406 308.070312 276.046875 C 321.351562 287.515625 335.558594 303.679688 349.3125 316.742188 C 358.203125 325.160156 366.875 332.308594 374.984375 335.957031 Z M 374.984375 335.957031 " fill-opacity="1" fill-rule="evenodd"/><path fill="#e9e9e9" d="M 374.984375 368.90625 L 374.984375 372.28125 C 367.707031 369.304688 360.921875 364.585938 354.878906 359.199219 C 339.203125 345.230469 328.429688 326.777344 326.414062 323.3125 C 316.871094 306.964844 308.179688 298.363281 299.90625 293.792969 C 291.6875 289.257812 283.921875 288.695312 276.246094 288.257812 C 265.398438 287.640625 254.730469 287.242188 243.28125 277.664062 C 235.0625 270.769531 225.882812 251.738281 217.863281 240.867188 C 215.976562 238.328125 214.160156 236.261719 212.4375 234.972656 C 211.113281 233.992188 209.917969 233.464844 208.753906 233.902344 C 207.757812 234.285156 206.867188 235.316406 206.015625 236.988281 C 204.402344 240.054688 203.039062 245.078125 201.914062 252.570312 C 199.664062 267.667969 188.488281 273.5625 179.21875 276.25 C 175.0625 277.445312 171.324219 277.992188 169.074219 278.460938 C 168.386719 278.605469 167.859375 278.699219 167.625 278.84375 C 162.945312 281.910156 161.273438 286.210938 161.058594 291.398438 C 160.839844 297.003906 162.253906 303.589844 163.707031 310.8125 C 166.410156 324.308594 169.222656 339.914062 162.691406 355.480469 C 159.933594 362.03125 155.523438 368.597656 148.738281 374.984375 L 144.074219 374.984375 C 151.929688 368.234375 156.867188 361.269531 159.804688 354.265625 C 166.0625 339.332031 163.234375 324.363281 160.640625 311.410156 C 159.132812 303.933594 157.699219 297.09375 157.9375 291.273438 C 158.191406 285.03125 160.292969 279.894531 165.917969 276.230469 C 166.355469 275.960938 167.207031 275.667969 168.441406 275.414062 C 170.636719 274.941406 174.300781 274.433594 178.347656 273.253906 C 186.65625 270.84375 196.796875 265.652344 198.832031 252.101562 C 200.027344 244.136719 201.535156 238.800781 203.238281 235.535156 C 204.5625 232.976562 206.089844 231.582031 207.648438 230.980469 C 209.335938 230.328125 211.148438 230.582031 213.054688 231.652344 C 215.339844 232.941406 217.808594 235.574219 220.367188 239.019531 C 228.277344 249.6875 237.183594 268.484375 245.296875 275.269531 C 256.089844 284.304688 266.195312 284.558594 276.429688 285.140625 C 284.539062 285.609375 292.738281 286.265625 301.414062 291.054688 C 310.03125 295.824219 319.175781 304.699219 329.117188 321.753906 C 331.078125 325.128906 341.617188 343.199219 356.949219 356.859375 C 362.410156 361.722656 368.46875 366.039062 374.984375 368.90625 Z M 374.984375 368.90625 " fill-opacity="1" fill-rule="evenodd"/><path fill="#e9e9e9" d="M 329.570312 374.984375 L 325.324219 374.984375 C 318.957031 367.488281 316.925781 359.597656 315.710938 351.613281 C 314.003906 340.292969 314.1875 328.773438 304.894531 318.140625 C 298.964844 311.335938 293.703125 308 288.675781 306.601562 C 283.667969 305.222656 278.933594 305.785156 274.089844 306.621094 C 263.640625 308.414062 252.769531 311.480469 238.292969 302.15625 C 235.535156 300.398438 232.703125 296.421875 229.964844 291.597656 C 226.101562 284.792969 222.289062 276.300781 218.660156 270.679688 C 217.535156 268.9375 216.449219 267.484375 215.359375 266.488281 C 214.578125 265.78125 213.855469 265.289062 213.109375 265.34375 C 212.148438 265.417969 211.386719 266.34375 210.496094 267.992188 C 208.683594 271.367188 207.015625 277.464844 205.433594 287.277344 C 204.617188 292.46875 200.519531 296.152344 195.765625 298.636719 C 189.832031 301.722656 182.957031 302.953125 181.324219 303.335938 C 178.746094 305.277344 177.148438 307.253906 176.261719 309.324219 C 174.121094 314.457031 176.351562 320.007812 178.945312 326.269531 C 182.648438 335.160156 187.203125 345.265625 184.152344 357.003906 C 182.703125 362.589844 179.527344 368.578125 173.667969 374.984375 L 169.347656 374.984375 C 176.078125 368.25 179.617188 362.027344 181.125 356.222656 C 183.988281 345.226562 179.527344 335.792969 176.0625 327.464844 C 173.105469 320.355469 170.925781 313.949219 173.394531 308.105469 C 174.464844 305.550781 176.425781 303.0625 179.671875 300.6875 C 179.761719 300.613281 180.214844 300.394531 180.996094 300.214844 C 182.628906 299.851562 186.839844 299.015625 191.15625 297.292969 C 196.183594 295.296875 201.496094 292.140625 202.367188 286.789062 C 204 276.464844 205.835938 270.0625 207.738281 266.503906 C 209.335938 263.546875 211.148438 262.367188 212.875 262.222656 C 214.089844 262.132812 215.378906 262.550781 216.648438 263.511719 C 218.152344 264.636719 219.714844 266.542969 221.292969 268.988281 C 224.9375 274.652344 228.785156 283.214844 232.6875 290.054688 C 235.117188 294.335938 237.53125 297.964844 239.980469 299.542969 C 253.550781 308.269531 263.765625 305.222656 273.5625 303.535156 C 278.859375 302.628906 284.03125 302.082031 289.511719 303.589844 C 294.988281 305.113281 300.777344 308.667969 307.253906 316.089844 C 315.09375 325.070312 316.671875 334.632812 317.886719 344.210938 C 319.210938 354.699219 320.136719 365.242188 329.570312 374.984375 Z M 329.570312 374.984375 " fill-opacity="1" fill-rule="evenodd"/><path fill="#e9e9e9" d="M 195.347656 371.570312 C 192.863281 372.460938 191.265625 372.0625 190.339844 371.246094 C 189.414062 370.429688 188.945312 368.921875 189.160156 366.890625 C 189.578125 362.84375 192.535156 356.097656 194.964844 350.417969 C 196.4375 346.953125 197.722656 343.921875 197.871094 342.34375 C 198.25 337.824219 196.746094 334.253906 194.621094 331.203125 C 192.355469 327.957031 189.398438 325.308594 187.074219 322.859375 C 183.320312 318.902344 181.285156 315.292969 184.007812 311.136719 C 187.710938 305.457031 193.28125 303.371094 198.597656 301.175781 C 203.242188 299.253906 207.667969 297.238281 209.828125 291.617188 C 210.96875 288.605469 212.039062 286.699219 212.984375 285.648438 C 213.964844 284.578125 214.941406 284.214844 215.851562 284.214844 C 216.738281 284.230469 217.664062 284.628906 218.554688 285.519531 C 219.441406 286.40625 220.367188 287.859375 221.347656 289.691406 C 223.558594 293.8125 226.171875 299.980469 230.109375 305.113281 C 233.8125 309.957031 238.691406 313.894531 245.640625 313.933594 C 264.054688 314.023438 281.710938 316.925781 293.847656 323.183594 C 306.527344 329.734375 313.351562 339.859375 309.503906 354.136719 C 309.140625 355.496094 307.761719 357.492188 305.550781 359.617188 C 300.851562 364.117188 292.433594 369.433594 284.304688 370.738281 C 280.800781 371.28125 276.320312 369.777344 270.152344 367.835938 C 256.671875 363.570312 234.554688 357.582031 195.347656 371.570312 Z M 194.296875 368.632812 C 234.554688 354.28125 257.253906 360.46875 271.09375 364.859375 C 276.648438 366.601562 280.65625 368.144531 283.8125 367.652344 C 291.308594 366.4375 299.054688 361.503906 303.390625 357.367188 C 305.058594 355.769531 306.222656 354.355469 306.492188 353.320312 C 309.902344 340.65625 303.664062 331.765625 292.414062 325.960938 C 280.640625 319.882812 263.492188 317.140625 245.640625 317.050781 C 237.601562 317.015625 231.886719 312.589844 227.625 307 C 223.578125 301.722656 220.855469 295.40625 218.589844 291.179688 C 217.917969 289.890625 217.28125 288.820312 216.648438 288.078125 C 216.464844 287.839844 216.285156 287.640625 216.085938 287.496094 C 215.996094 287.425781 215.902344 287.332031 215.8125 287.332031 C 215.722656 287.332031 215.648438 287.425781 215.578125 287.496094 C 215.378906 287.660156 215.179688 287.878906 214.960938 288.167969 C 214.269531 289.109375 213.546875 290.597656 212.746094 292.738281 C 210.226562 299.289062 205.199219 301.8125 199.792969 304.0625 C 195.019531 306.039062 189.941406 307.761719 186.621094 312.84375 C 185.621094 314.382812 185.769531 315.761719 186.53125 317.160156 C 187.164062 318.320312 188.179688 319.484375 189.34375 320.71875 C 191.753906 323.257812 194.820312 326.03125 197.199219 329.425781 C 199.703125 333.019531 201.445312 337.261719 200.972656 342.597656 C 200.828125 344.355469 199.484375 347.769531 197.832031 351.652344 C 195.546875 357.019531 192.664062 363.390625 192.261719 367.199219 C 192.207031 367.636719 192.207031 368.035156 192.246094 368.359375 C 192.28125 368.597656 192.28125 368.796875 192.410156 368.90625 C 192.535156 369.015625 192.699219 368.976562 192.933594 368.960938 C 193.316406 368.921875 193.769531 368.8125 194.296875 368.632812 Z M 194.296875 368.632812 " fill-opacity="1" fill-rule="evenodd"/><path fill="#e9e9e9" d="M 374.984375 250.085938 L 374.984375 255.113281 C 366.566406 244.0625 354.84375 232.8125 329.988281 233.375 C 318.832031 233.628906 312.246094 231.21875 308.015625 227.335938 C 303.789062 223.453125 301.882812 218.007812 300.269531 211.929688 C 297.277344 200.753906 295.171875 187.273438 277.84375 178.765625 C 267.304688 173.59375 260.210938 168.769531 255.730469 164.234375 C 250.976562 159.40625 249.089844 154.816406 249.125 150.460938 C 249.160156 146.960938 250.429688 143.550781 252.589844 140.230469 C 255.636719 135.546875 260.445312 130.976562 265.742188 126.367188 C 272.546875 120.433594 280.148438 114.449219 285.429688 108.007812 C 288.769531 103.925781 291.164062 99.660156 291.671875 95.089844 C 291.742188 94.507812 291.5625 93.417969 291.324219 91.949219 C 290.710938 87.996094 289.601562 81.699219 290.019531 75.292969 C 290.65625 65.714844 294.609375 55.9375 307.980469 52.6875 C 342.925781 44.199219 349.855469 16.09375 350.945312 0 L 354.046875 0 C 352.957031 16.65625 345.847656 46.703125 308.726562 55.71875 C 297.058594 58.566406 293.683594 67.148438 293.140625 75.496094 C 292.742188 81.644531 293.8125 87.667969 294.410156 91.460938 C 294.699219 93.328125 294.863281 94.707031 294.773438 95.433594 C 294.210938 100.570312 291.597656 105.394531 287.84375 109.984375 C 282.472656 116.554688 274.742188 122.683594 267.792969 128.726562 C 263.566406 132.390625 259.628906 136.039062 256.761719 139.757812 C 254.058594 143.242188 252.28125 146.78125 252.265625 150.480469 C 252.226562 154.164062 253.933594 157.972656 257.960938 162.039062 C 262.242188 166.410156 269.101562 171 279.222656 175.972656 C 297.65625 185.007812 300.089844 199.230469 303.28125 211.132812 C 304.753906 216.59375 306.332031 221.546875 310.140625 225.03125 C 313.933594 228.53125 319.902344 230.492188 329.933594 230.253906 C 353.8125 229.710938 366.222656 239.507812 374.964844 250.066406 Z M 374.984375 250.085938 " fill-opacity="1" fill-rule="evenodd"/><path fill="#e9e9e9" d="M 374.984375 233.59375 C 360.578125 226.246094 345.320312 224.9375 333.164062 222.726562 C 322.714844 220.839844 314.476562 218.171875 310.429688 211.296875 C 307.726562 206.6875 306.820312 200.136719 308.542969 190.484375 C 310.121094 181.703125 306.417969 175.664062 301.03125 170.980469 C 295.316406 166.027344 287.75 162.5625 282.070312 159.152344 C 279.132812 157.390625 276.683594 155.632812 275.121094 153.746094 C 273.925781 152.277344 273.21875 150.734375 273.109375 149.066406 C 272.925781 146.488281 274.195312 143.457031 277.878906 139.9375 C 284.449219 133.660156 289.710938 129.359375 293.753906 125.605469 C 297.566406 122.03125 300.25 119.019531 301.757812 115.136719 C 303.789062 109.894531 303.660156 103.144531 301.628906 91.640625 C 300.234375 83.695312 301.230469 78.652344 303.644531 75.257812 C 306.09375 71.8125 310.066406 69.996094 314.929688 68.691406 C 327.992188 65.226562 348.039062 65.570312 357.457031 39.84375 C 361.101562 29.84375 364.007812 24.257812 367.726562 20.574219 C 369.792969 18.523438 372.117188 17.035156 374.984375 15.730469 L 374.984375 19.195312 C 373.058594 20.175781 371.410156 21.300781 369.921875 22.789062 C 366.4375 26.253906 363.808594 31.53125 360.378906 40.914062 C 352.050781 63.683594 336.03125 67.402344 322.875 70.125 C 319.136719 70.902344 315.636719 71.574219 312.679688 72.664062 C 309.957031 73.644531 307.707031 74.949219 306.183594 77.054688 C 304.117188 79.976562 303.5 84.3125 304.714844 91.097656 C 306.875 103.417969 306.835938 110.636719 304.660156 116.261719 C 303.007812 120.542969 300.105469 123.9375 295.878906 127.890625 C 291.851562 131.628906 286.589844 135.929688 280.039062 142.207031 C 277.300781 144.820312 276.085938 146.921875 276.230469 148.847656 C 276.320312 150.1875 277.082031 151.367188 278.242188 152.511719 C 279.605469 153.890625 281.507812 155.179688 283.667969 156.484375 C 289.492188 159.96875 297.222656 163.542969 303.082031 168.621094 C 309.269531 173.992188 313.421875 180.960938 311.628906 191.046875 C 310.066406 199.703125 310.683594 205.582031 313.113281 209.699219 C 316.761719 215.902344 324.328125 217.953125 333.707031 219.660156 C 345.753906 221.835938 360.6875 223.25 374.984375 230.128906 Z M 374.984375 233.59375 " fill-opacity="1" fill-rule="evenodd"/><path fill="#e9e9e9" d="M 374.984375 212.53125 C 372.226562 210.078125 369.902344 208.484375 367.542969 207.429688 C 361.46875 204.691406 355.316406 205.472656 341.890625 203.984375 C 339.367188 203.710938 337.554688 202.785156 336.265625 201.496094 C 334.378906 199.609375 333.582031 196.851562 333.472656 193.75 C 333.308594 188.980469 334.816406 183.371094 335.523438 179.796875 C 335.667969 179.109375 335.757812 178.511719 335.8125 178.019531 C 335.832031 177.800781 335.832031 177.476562 335.832031 177.421875 C 334.269531 173.121094 330.132812 168.96875 325.78125 164.902344 C 321.097656 160.566406 316.164062 156.339844 313.332031 152.238281 C 311.191406 149.117188 310.25 146.035156 311.101562 143.039062 C 311.917969 140.171875 314.457031 137.253906 319.738281 134.496094 C 321.40625 133.625 322.550781 131.972656 323.367188 129.867188 C 324.308594 127.511719 324.816406 124.589844 325.125 121.414062 C 326.085938 111.363281 324.890625 98.84375 326.269531 91.929688 C 327.105469 87.722656 329.660156 86.289062 333.507812 85.417969 C 337.808594 84.457031 343.996094 84.238281 350.691406 79.320312 C 355.171875 76.054688 359.871094 70.703125 364.441406 61.703125 C 366.582031 57.476562 367.707031 54.121094 368.722656 51.289062 C 369.738281 48.441406 370.683594 46.101562 372.316406 43.996094 C 373.042969 43.054688 373.914062 42.164062 374.984375 41.277344 L 374.984375 45.667969 C 374.929688 45.738281 374.855469 45.828125 374.800781 45.902344 C 373.351562 47.769531 372.550781 49.839844 371.664062 52.34375 C 370.609375 55.265625 369.449219 58.746094 367.21875 63.121094 C 356.75 83.75 345.464844 86.359375 337.625 87.8125 C 335.703125 88.175781 334 88.429688 332.582031 88.917969 C 330.914062 89.5 329.753906 90.425781 329.335938 92.546875 C 327.957031 99.386719 329.191406 111.78125 328.246094 121.722656 C 327.828125 125.929688 327.03125 129.722656 325.578125 132.570312 C 324.492188 134.675781 323.039062 136.292969 321.171875 137.269531 C 316.980469 139.464844 314.765625 141.605469 314.113281 143.894531 C 313.660156 145.453125 314.003906 147.03125 314.820312 148.648438 C 315.765625 150.515625 317.308594 152.402344 319.140625 154.324219 C 323.039062 158.425781 328.246094 162.652344 332.367188 166.988281 C 335.269531 170.074219 337.644531 173.210938 338.789062 176.425781 C 338.988281 177.023438 339.007812 178.167969 338.734375 179.652344 C 338.261719 182.285156 337.136719 186.402344 336.71875 190.429688 C 336.230469 195.347656 336.683594 200.265625 342.234375 200.882812 C 356.152344 202.421875 362.519531 201.734375 368.832031 204.582031 C 370.808594 205.472656 372.789062 206.707031 374.984375 208.445312 Z M 374.984375 212.53125 " fill-opacity="1" fill-rule="evenodd"/><path fill="#e9e9e9" d="M 374.984375 195.601562 C 370.484375 194.859375 366.382812 194.078125 362.9375 192.953125 C 358.328125 191.429688 354.824219 189.25 352.8125 185.859375 C 350.816406 182.519531 350.234375 177.914062 351.777344 171.398438 C 355.1875 156.867188 349.164062 149.375 344.410156 142.351562 C 341.78125 138.46875 339.53125 134.714844 339.003906 130.214844 C 338.496094 125.695312 339.695312 120.378906 344.210938 113.429688 C 344.703125 112.671875 345.535156 112.015625 346.660156 111.472656 C 347.949219 110.855469 349.65625 110.328125 351.503906 109.675781 C 355.550781 108.242188 360.394531 106.082031 361.703125 99.695312 C 363.445312 91.222656 365.546875 86.796875 368.632812 84.257812 C 370.375 82.84375 372.425781 81.988281 374.984375 81.390625 L 374.984375 84.601562 C 373.277344 85.054688 371.84375 85.671875 370.609375 86.671875 C 367.90625 88.902344 366.292969 92.894531 364.769531 100.332031 C 363.171875 108.097656 357.457031 110.875 352.558594 112.617188 C 351.089844 113.140625 349.726562 113.558594 348.601562 114.03125 C 347.804688 114.359375 347.152344 114.648438 346.824219 115.136719 C 342.851562 121.253906 341.652344 125.878906 342.125 129.851562 C 342.578125 133.863281 344.664062 137.144531 347.007812 140.59375 C 352.160156 148.210938 358.527344 156.378906 354.824219 172.105469 C 353.539062 177.585938 353.828125 181.453125 355.496094 184.261719 C 357.148438 187.058594 360.125 188.726562 363.914062 189.980469 C 367.109375 191.03125 370.863281 191.757812 374.984375 192.445312 Z M 374.984375 195.601562 " fill-opacity="1" fill-rule="evenodd"/></svg>