<svg xmlns="http://www.w3.org/2000/svg" viewBox="0 0 3000 8000" width="3000" height="8000">
  <!--
    Wasatch Front–inspired topographic contour map.
    Dominant N-S ridgeline running through center.
    Steep western face (tight contours left of ridge),
    gentler eastern slopes (spread contours right of ridge).
    Canyon mouths cut V-shapes into the ridge from the west.
    Index contours every 5th line: thicker, darker.
  -->

  <!-- ============================================== -->
  <!-- SECTION 1: Northern peaks (y 0–2000)           -->
  <!-- ============================================== -->

  <!-- Index contour — outermost northern massif -->
  <path d="M 800,0 C 780,120 720,280 760,420 C 800,560 900,640 1050,680 C 1200,720 1380,700 1500,620 C 1620,540 1680,400 1660,260 C 1640,120 1580,20 1540,0"
        fill="none" stroke="#BFC5D1" stroke-width="1.0" opacity="0.45" stroke-linecap="round" stroke-linejoin="round"/>
  <!-- Intermediate -->
  <path d="M 860,0 C 842,100 790,250 825,375 C 860,500 945,572 1070,608 C 1195,644 1350,628 1455,558 C 1560,488 1612,368 1596,245 C 1580,122 1530,38 1495,0"
        fill="none" stroke="#D5D9E2" stroke-width="0.4" opacity="0.25" stroke-linecap="round" stroke-linejoin="round"/>
  <!-- Intermediate -->
  <path d="M 915,0 C 900,85 858,218 888,332 C 918,446 990,510 1092,540 C 1194,570 1322,558 1412,498 C 1502,438 1546,336 1534,230 C 1522,124 1482,55 1452,0"
        fill="none" stroke="#D5D9E2" stroke-width="0.4" opacity="0.25" stroke-linecap="round" stroke-linejoin="round"/>
  <!-- Intermediate -->
  <path d="M 965,0 C 954,72 920,188 946,290 C 972,392 1035,448 1118,474 C 1201,500 1298,490 1372,440 C 1446,390 1482,306 1474,218 C 1466,130 1436,70 1412,0"
        fill="none" stroke="#D5D9E2" stroke-width="0.4" opacity="0.25" stroke-linecap="round" stroke-linejoin="round"/>
  <!-- Intermediate -->
  <path d="M 1010,0 C 1002,60 978,160 1000,250 C 1022,340 1075,390 1142,412 C 1209,434 1278,426 1336,386 C 1394,346 1422,278 1416,206 C 1410,134 1390,82 1372,0"
        fill="none" stroke="#D5D9E2" stroke-width="0.4" opacity="0.25" stroke-linecap="round" stroke-linejoin="round"/>
  <!-- Index contour — inner northern peak -->
  <path d="M 1050,0 C 1045,50 1030,132 1048,210 C 1066,288 1110,334 1164,352 C 1218,370 1260,364 1302,334 C 1344,304 1366,252 1362,196 C 1358,140 1346,92 1335,0"
        fill="none" stroke="#BFC5D1" stroke-width="1.0" opacity="0.45" stroke-linecap="round" stroke-linejoin="round"/>
  <!-- Intermediate — near-summit -->
  <path d="M 1088,10 C 1085,42 1076,108 1090,172 C 1104,236 1138,272 1178,286 C 1218,300 1248,296 1276,274 C 1304,252 1318,214 1316,172 C 1314,130 1306,82 1298,22"
        fill="none" stroke="#D5D9E2" stroke-width="0.4" opacity="0.25" stroke-linecap="round" stroke-linejoin="round"/>
  <!-- Intermediate — summit core -->
  <path d="M 1120,30 C 1118,55 1114,96 1124,142 C 1134,188 1158,216 1188,226 C 1218,236 1240,232 1258,218 C 1276,204 1284,178 1282,148 C 1280,118 1272,76 1265,42"
        fill="none" stroke="#D5D9E2" stroke-width="0.4" opacity="0.25" stroke-linecap="round" stroke-linejoin="round"/>

  <!-- ============================================== -->
  <!-- SECTION 2: First canyon mouth (y 600–1200)     -->
  <!-- Deep V cutting into ridge from west             -->
  <!-- ============================================== -->

  <!-- Index — canyon walls outer -->
  <path d="M 600,620 C 640,660 720,740 830,820 C 940,900 1020,940 1060,980 C 1020,1020 940,1060 830,1140 C 720,1220 640,1300 600,1340"
        fill="none" stroke="#BFC5D1" stroke-width="1.0" opacity="0.45" stroke-linecap="round" stroke-linejoin="round"/>
  <!-- Intermediate -->
  <path d="M 680,660 C 714,694 780,762 875,832 C 970,902 1040,938 1075,972 C 1040,1006 970,1042 875,1112 C 780,1182 714,1250 680,1284"
        fill="none" stroke="#D5D9E2" stroke-width="0.4" opacity="0.25" stroke-linecap="round" stroke-linejoin="round"/>
  <!-- Intermediate -->
  <path d="M 752,698 C 780,726 838,784 916,844 C 994,904 1052,936 1082,964 C 1052,992 994,1024 916,1084 C 838,1144 780,1202 752,1230"
        fill="none" stroke="#D5D9E2" stroke-width="0.4" opacity="0.25" stroke-linecap="round" stroke-linejoin="round"/>
  <!-- Intermediate -->
  <path d="M 818,734 C 842,756 890,804 952,854 C 1014,904 1060,932 1086,956 C 1060,980 1014,1008 952,1058 C 890,1108 842,1156 818,1178"
        fill="none" stroke="#D5D9E2" stroke-width="0.4" opacity="0.25" stroke-linecap="round" stroke-linejoin="round"/>
  <!-- Intermediate -->
  <path d="M 878,768 C 898,786 936,822 984,862 C 1032,902 1066,928 1088,948 C 1066,968 1032,994 984,1034 C 936,1074 898,1110 878,1128"
        fill="none" stroke="#D5D9E2" stroke-width="0.4" opacity="0.25" stroke-linecap="round" stroke-linejoin="round"/>
  <!-- Index — canyon walls inner -->
  <path d="M 932,800 C 948,816 976,840 1012,870 C 1048,900 1070,922 1086,940 C 1070,958 1048,980 1012,1010 C 976,1040 948,1064 932,1080"
        fill="none" stroke="#BFC5D1" stroke-width="1.0" opacity="0.45" stroke-linecap="round" stroke-linejoin="round"/>
  <!-- Innermost canyon V -->
  <path d="M 978,832 C 990,844 1014,864 1042,888 C 1070,912 1080,928 1086,936 C 1080,944 1070,960 1042,984 C 1014,1008 990,1028 978,1040"
        fill="none" stroke="#D5D9E2" stroke-width="0.4" opacity="0.25" stroke-linecap="round" stroke-linejoin="round"/>

  <!-- East-side contours wrapping around canyon — gentle spacing -->
  <path d="M 1500,580 C 1480,660 1420,780 1340,880 C 1260,980 1200,1000 1260,1080 C 1320,1160 1420,1200 1480,1280 C 1540,1360 1520,1440 1500,1520"
        fill="none" stroke="#D5D9E2" stroke-width="0.4" opacity="0.25" stroke-linecap="round" stroke-linejoin="round"/>
  <path d="M 1620,540 C 1600,640 1540,780 1440,900 C 1340,1020 1260,1050 1340,1150 C 1420,1250 1540,1300 1600,1400 C 1660,1500 1640,1590 1620,1660"
        fill="none" stroke="#D5D9E2" stroke-width="0.4" opacity="0.25" stroke-linecap="round" stroke-linejoin="round"/>
  <!-- Index — east side -->
  <path d="M 1740,500 C 1720,620 1650,780 1530,920 C 1410,1060 1310,1100 1410,1220 C 1510,1340 1650,1400 1720,1520 C 1790,1640 1760,1740 1740,1820"
        fill="none" stroke="#BFC5D1" stroke-width="1.0" opacity="0.45" stroke-linecap="round" stroke-linejoin="round"/>
  <path d="M 1860,470 C 1842,600 1772,780 1640,940 C 1508,1100 1390,1148 1508,1290 C 1626,1432 1772,1500 1842,1640 C 1912,1780 1880,1890 1860,1980"
        fill="none" stroke="#D5D9E2" stroke-width="0.4" opacity="0.25" stroke-linecap="round" stroke-linejoin="round"/>
  <path d="M 1980,450 C 1964,590 1894,790 1750,960 C 1606,1130 1470,1190 1606,1350 C 1742,1510 1894,1590 1964,1740 C 2034,1890 2000,2010 1980,2100"
        fill="none" stroke="#D5D9E2" stroke-width="0.4" opacity="0.25" stroke-linecap="round" stroke-linejoin="round"/>

  <!-- ============================================== -->
  <!-- SECTION 3: Central ridgeline (y 1800–3600)     -->
  <!-- Saddle between peaks, steep west face           -->
  <!-- ============================================== -->

  <!-- Western face — tight bunching -->
  <path d="M 520,1800 C 540,1920 600,2100 700,2300 C 800,2500 880,2640 920,2800 C 960,2960 940,3120 900,3280 C 860,3440 800,3520 740,3600"
        fill="none" stroke="#D5D9E2" stroke-width="0.4" opacity="0.25" stroke-linecap="round" stroke-linejoin="round"/>
  <path d="M 560,1810 C 578,1928 634,2104 730,2298 C 826,2492 902,2630 940,2788 C 978,2946 958,3106 920,3264 C 882,3422 824,3502 766,3600"
        fill="none" stroke="#D5D9E2" stroke-width="0.4" opacity="0.25" stroke-linecap="round" stroke-linejoin="round"/>
  <path d="M 600,1820 C 616,1936 668,2108 758,2296 C 848,2484 920,2620 956,2776 C 992,2932 974,3092 938,3248 C 902,3404 848,3484 792,3600"
        fill="none" stroke="#D5D9E2" stroke-width="0.4" opacity="0.25" stroke-linecap="round" stroke-linejoin="round"/>
  <path d="M 638,1830 C 652,1944 700,2112 786,2294 C 872,2476 940,2610 974,2764 C 1008,2918 990,3078 956,3232 C 922,3386 870,3466 818,3600"
        fill="none" stroke="#D5D9E2" stroke-width="0.4" opacity="0.25" stroke-linecap="round" stroke-linejoin="round"/>
  <!-- Index — western face -->
  <path d="M 676,1840 C 688,1952 732,2116 812,2292 C 892,2468 958,2600 990,2752 C 1022,2904 1006,3064 974,3216 C 942,3368 892,3448 842,3600"
        fill="none" stroke="#BFC5D1" stroke-width="1.0" opacity="0.45" stroke-linecap="round" stroke-linejoin="round"/>
  <path d="M 712,1850 C 722,1960 762,2120 838,2290 C 914,2460 976,2590 1006,2740 C 1036,2890 1020,3050 990,3200 C 960,3350 914,3430 866,3600"
        fill="none" stroke="#D5D9E2" stroke-width="0.4" opacity="0.25" stroke-linecap="round" stroke-linejoin="round"/>
  <path d="M 746,1860 C 754,1968 790,2124 862,2288 C 934,2452 992,2580 1020,2728 C 1048,2876 1034,3036 1006,3184 C 978,3332 934,3412 890,3600"
        fill="none" stroke="#D5D9E2" stroke-width="0.4" opacity="0.25" stroke-linecap="round" stroke-linejoin="round"/>
  <path d="M 780,1870 C 786,1976 818,2128 886,2286 C 954,2444 1008,2570 1034,2716 C 1060,2862 1048,3022 1022,3168 C 996,3314 954,3394 912,3600"
        fill="none" stroke="#D5D9E2" stroke-width="0.4" opacity="0.25" stroke-linecap="round" stroke-linejoin="round"/>
  <path d="M 812,1880 C 816,1984 844,2132 908,2284 C 972,2436 1024,2560 1048,2704 C 1072,2848 1062,3008 1038,3152 C 1014,3296 974,3376 934,3600"
        fill="none" stroke="#D5D9E2" stroke-width="0.4" opacity="0.25" stroke-linecap="round" stroke-linejoin="round"/>
  <!-- Index — ridgeline crest -->
  <path d="M 844,1890 C 846,1992 870,2136 930,2282 C 990,2428 1038,2550 1060,2692 C 1082,2834 1074,2994 1052,3136 C 1030,3278 994,3358 956,3600"
        fill="none" stroke="#BFC5D1" stroke-width="1.0" opacity="0.45" stroke-linecap="round" stroke-linejoin="round"/>
  <!-- Ridge summit line -->
  <path d="M 874,1900 C 874,2000 894,2140 950,2280 C 1006,2420 1052,2540 1072,2680 C 1092,2820 1086,2980 1066,3120 C 1046,3260 1012,3340 978,3600"
        fill="none" stroke="#D5D9E2" stroke-width="0.4" opacity="0.25" stroke-linecap="round" stroke-linejoin="round"/>

  <!-- Eastern gentle slopes — wide spacing -->
  <path d="M 1200,1850 C 1190,2000 1160,2200 1140,2450 C 1120,2700 1130,2900 1160,3100 C 1190,3300 1210,3440 1230,3600"
        fill="none" stroke="#D5D9E2" stroke-width="0.4" opacity="0.25" stroke-linecap="round" stroke-linejoin="round"/>
  <path d="M 1380,1840 C 1368,2010 1330,2230 1306,2500 C 1282,2770 1294,2980 1330,3190 C 1366,3400 1390,3510 1410,3600"
        fill="none" stroke="#D5D9E2" stroke-width="0.4" opacity="0.25" stroke-linecap="round" stroke-linejoin="round"/>
  <!-- Index — east -->
  <path d="M 1560,1830 C 1546,2020 1500,2260 1472,2550 C 1444,2840 1458,3060 1500,3280 C 1542,3500 1568,3550 1588,3600"
        fill="none" stroke="#BFC5D1" stroke-width="1.0" opacity="0.45" stroke-linecap="round" stroke-linejoin="round"/>
  <path d="M 1740,1820 C 1724,2030 1670,2290 1638,2600 C 1606,2910 1622,3140 1670,3370 C 1718,3600 1746,3590 1768,3600"
        fill="none" stroke="#D5D9E2" stroke-width="0.4" opacity="0.25" stroke-linecap="round" stroke-linejoin="round"/>
  <path d="M 1920,1810 C 1902,2040 1840,2320 1804,2650 C 1768,2980 1786,3220 1840,3460 C 1894,3600 1920,3598 1940,3600"
        fill="none" stroke="#D5D9E2" stroke-width="0.4" opacity="0.25" stroke-linecap="round" stroke-linejoin="round"/>

  <!-- ============================================== -->
  <!-- SECTION 4: Second canyon (y 3200–4200)         -->
  <!-- Deep V from west, like Little Cottonwood       -->
  <!-- ============================================== -->

  <!-- Index — outer canyon walls -->
  <path d="M 400,3250 C 450,3320 540,3420 660,3520 C 780,3620 870,3680 930,3740 C 870,3800 780,3860 660,3960 C 540,4060 450,4160 400,4230"
        fill="none" stroke="#BFC5D1" stroke-width="1.0" opacity="0.45" stroke-linecap="round" stroke-linejoin="round"/>
  <path d="M 490,3290 C 532,3352 610,3440 714,3530 C 818,3620 898,3674 950,3728 C 898,3782 818,3836 714,3926 C 610,4016 532,4104 490,4166"
        fill="none" stroke="#D5D9E2" stroke-width="0.4" opacity="0.25" stroke-linecap="round" stroke-linejoin="round"/>
  <path d="M 572,3328 C 608,3382 676,3460 764,3540 C 852,3620 922,3668 966,3716 C 922,3764 852,3812 764,3892 C 676,3972 608,4050 572,4104"
        fill="none" stroke="#D5D9E2" stroke-width="0.4" opacity="0.25" stroke-linecap="round" stroke-linejoin="round"/>
  <path d="M 648,3364 C 678,3410 734,3478 808,3548 C 882,3618 942,3660 980,3704 C 942,3748 882,3790 808,3860 C 734,3930 678,3998 648,4044"
        fill="none" stroke="#D5D9E2" stroke-width="0.4" opacity="0.25" stroke-linecap="round" stroke-linejoin="round"/>
  <path d="M 718,3398 C 742,3436 788,3496 848,3556 C 908,3616 958,3652 990,3692 C 958,3732 908,3768 848,3828 C 788,3888 742,3948 718,3986"
        fill="none" stroke="#D5D9E2" stroke-width="0.4" opacity="0.25" stroke-linecap="round" stroke-linejoin="round"/>
  <!-- Index — inner canyon -->
  <path d="M 782,3430 C 802,3462 838,3512 886,3564 C 934,3616 972,3646 998,3680 C 972,3714 934,3744 886,3796 C 838,3848 802,3898 782,3930"
        fill="none" stroke="#BFC5D1" stroke-width="1.0" opacity="0.45" stroke-linecap="round" stroke-linejoin="round"/>
  <path d="M 840,3460 C 856,3486 884,3528 920,3572 C 956,3616 984,3640 1004,3668 C 984,3696 956,3720 920,3764 C 884,3808 856,3850 840,3876"
        fill="none" stroke="#D5D9E2" stroke-width="0.4" opacity="0.25" stroke-linecap="round" stroke-linejoin="round"/>
  <path d="M 892,3488 C 904,3508 926,3542 954,3580 C 982,3618 1000,3638 1012,3660 C 1000,3682 982,3702 954,3740 C 926,3778 904,3812 892,3832"
        fill="none" stroke="#D5D9E2" stroke-width="0.4" opacity="0.25" stroke-linecap="round" stroke-linejoin="round"/>

  <!-- ============================================== -->
  <!-- SECTION 5: Southern peaks (y 4000–5800)        -->
  <!-- Bench/terrace then steep again                  -->
  <!-- ============================================== -->

  <!-- Wide-spaced bench contours (gentle terrain) -->
  <path d="M 500,4100 C 540,4200 620,4380 740,4520 C 860,4660 960,4720 1040,4760"
        fill="none" stroke="#D5D9E2" stroke-width="0.4" opacity="0.2" stroke-linecap="round" stroke-linejoin="round"/>
  <path d="M 460,4260 C 500,4360 580,4540 700,4680 C 820,4820 920,4880 1000,4920"
        fill="none" stroke="#D5D9E2" stroke-width="0.4" opacity="0.2" stroke-linecap="round" stroke-linejoin="round"/>
  <!-- Index — bench -->
  <path d="M 420,4420 C 460,4520 540,4700 660,4840 C 780,4980 880,5040 960,5080"
        fill="none" stroke="#BFC5D1" stroke-width="1.0" opacity="0.45" stroke-linecap="round" stroke-linejoin="round"/>

  <!-- Steep southern face contours — tight again -->
  <path d="M 500,5000 C 530,5080 590,5220 680,5380 C 770,5540 850,5640 920,5720 C 990,5800 1020,5860 1040,5900"
        fill="none" stroke="#D5D9E2" stroke-width="0.4" opacity="0.25" stroke-linecap="round" stroke-linejoin="round"/>
  <path d="M 540,5020 C 568,5098 624,5234 710,5390 C 796,5546 874,5644 942,5722 C 1010,5800 1038,5858 1056,5900"
        fill="none" stroke="#D5D9E2" stroke-width="0.4" opacity="0.25" stroke-linecap="round" stroke-linejoin="round"/>
  <path d="M 578,5040 C 604,5116 656,5248 738,5400 C 820,5552 896,5648 962,5724 C 1028,5800 1054,5856 1070,5900"
        fill="none" stroke="#D5D9E2" stroke-width="0.4" opacity="0.25" stroke-linecap="round" stroke-linejoin="round"/>
  <path d="M 614,5060 C 638,5134 686,5262 764,5410 C 842,5558 916,5652 980,5726 C 1044,5800 1068,5854 1084,5900"
        fill="none" stroke="#D5D9E2" stroke-width="0.4" opacity="0.25" stroke-linecap="round" stroke-linejoin="round"/>
  <!-- Index -->
  <path d="M 650,5080 C 672,5152 716,5276 790,5420 C 864,5564 936,5656 998,5728 C 1060,5800 1082,5852 1096,5900"
        fill="none" stroke="#BFC5D1" stroke-width="1.0" opacity="0.45" stroke-linecap="round" stroke-linejoin="round"/>
  <path d="M 684,5100 C 704,5170 744,5290 814,5430 C 884,5570 954,5660 1014,5730 C 1074,5800 1094,5850 1108,5900"
        fill="none" stroke="#D5D9E2" stroke-width="0.4" opacity="0.25" stroke-linecap="round" stroke-linejoin="round"/>
  <path d="M 718,5120 C 736,5188 772,5304 838,5440 C 904,5576 972,5664 1030,5732 C 1088,5800 1106,5848 1120,5900"
        fill="none" stroke="#D5D9E2" stroke-width="0.4" opacity="0.25" stroke-linecap="round" stroke-linejoin="round"/>
  <path d="M 750,5140 C 766,5206 798,5318 860,5450 C 922,5582 988,5668 1044,5734 C 1100,5800 1116,5846 1130,5900"
        fill="none" stroke="#D5D9E2" stroke-width="0.4" opacity="0.25" stroke-linecap="round" stroke-linejoin="round"/>
  <path d="M 782,5160 C 796,5224 824,5332 882,5460 C 940,5588 1004,5672 1058,5736 C 1112,5800 1126,5844 1140,5900"
        fill="none" stroke="#D5D9E2" stroke-width="0.4" opacity="0.25" stroke-linecap="round" stroke-linejoin="round"/>
  <!-- Index — crest -->
  <path d="M 812,5180 C 824,5242 848,5346 902,5470 C 956,5594 1018,5676 1070,5738 C 1122,5800 1134,5842 1148,5900"
        fill="none" stroke="#BFC5D1" stroke-width="1.0" opacity="0.45" stroke-linecap="round" stroke-linejoin="round"/>

  <!-- East side — southern section -->
  <path d="M 1300,5000 C 1280,5120 1240,5320 1220,5540 C 1200,5760 1220,5860 1240,5900"
        fill="none" stroke="#D5D9E2" stroke-width="0.4" opacity="0.25" stroke-linecap="round" stroke-linejoin="round"/>
  <path d="M 1500,4980 C 1476,5110 1430,5320 1406,5550 C 1382,5780 1404,5870 1426,5900"
        fill="none" stroke="#D5D9E2" stroke-width="0.4" opacity="0.25" stroke-linecap="round" stroke-linejoin="round"/>
  <!-- Index — east south -->
  <path d="M 1700,4960 C 1672,5100 1620,5320 1592,5560 C 1564,5800 1588,5880 1612,5900"
        fill="none" stroke="#BFC5D1" stroke-width="1.0" opacity="0.45" stroke-linecap="round" stroke-linejoin="round"/>
  <path d="M 1900,4940 C 1868,5090 1810,5320 1778,5570 C 1746,5820 1772,5882 1798,5900"
        fill="none" stroke="#D5D9E2" stroke-width="0.4" opacity="0.25" stroke-linecap="round" stroke-linejoin="round"/>

  <!-- ============================================== -->
  <!-- SECTION 6: Third canyon (y 5600–6600)          -->
  <!-- Another V from west, shallower                  -->
  <!-- ============================================== -->

  <!-- Index — outer -->
  <path d="M 480,5700 C 530,5770 620,5870 730,5960 C 840,6050 920,6100 970,6150 C 920,6200 840,6250 730,6340 C 620,6430 530,6530 480,6600"
        fill="none" stroke="#BFC5D1" stroke-width="1.0" opacity="0.45" stroke-linecap="round" stroke-linejoin="round"/>
  <path d="M 570,5740 C 612,5802 688,5888 782,5968 C 876,6048 944,6094 988,6138 C 944,6182 876,6228 782,6308 C 688,6388 612,6474 570,6536"
        fill="none" stroke="#D5D9E2" stroke-width="0.4" opacity="0.25" stroke-linecap="round" stroke-linejoin="round"/>
  <path d="M 654,5778 C 688,5832 750,5906 830,5976 C 910,6046 966,6088 1002,6126 C 966,6164 910,6206 830,6276 C 750,6346 688,6420 654,6474"
        fill="none" stroke="#D5D9E2" stroke-width="0.4" opacity="0.25" stroke-linecap="round" stroke-linejoin="round"/>
  <path d="M 732,5814 C 760,5860 810,5924 876,5984 C 942,6044 988,6082 1018,6114 C 988,6146 942,6184 876,6244 C 810,6304 760,6368 732,6414"
        fill="none" stroke="#D5D9E2" stroke-width="0.4" opacity="0.25" stroke-linecap="round" stroke-linejoin="round"/>
  <path d="M 804,5848 C 826,5886 866,5940 920,5992 C 974,6044 1008,6076 1032,6102 C 1008,6128 974,6160 920,6212 C 866,6264 826,6318 804,6356"
        fill="none" stroke="#D5D9E2" stroke-width="0.4" opacity="0.25" stroke-linecap="round" stroke-linejoin="round"/>
  <!-- Index — inner -->
  <path d="M 870,5880 C 888,5912 918,5956 960,6000 C 1002,6044 1028,6070 1046,6092 C 1028,6114 1002,6140 960,6184 C 918,6228 888,6272 870,6304"
        fill="none" stroke="#BFC5D1" stroke-width="1.0" opacity="0.45" stroke-linecap="round" stroke-linejoin="round"/>

  <!-- ============================================== -->
  <!-- SECTION 7: Southern extension (y 6400–8000)    -->
  <!-- Ridgeline continues, fading out                 -->
  <!-- ============================================== -->

  <!-- Western face fading -->
  <path d="M 560,6500 C 590,6620 650,6820 740,7040 C 830,7260 900,7420 950,7560 C 1000,7700 1020,7820 1030,7900"
        fill="none" stroke="#D5D9E2" stroke-width="0.4" opacity="0.2" stroke-linecap="round" stroke-linejoin="round"/>
  <path d="M 620,6520 C 648,6636 704,6830 790,7044 C 876,7258 944,7416 992,7554 C 1040,7692 1058,7810 1068,7900"
        fill="none" stroke="#D5D9E2" stroke-width="0.4" opacity="0.2" stroke-linecap="round" stroke-linejoin="round"/>
  <path d="M 680,6540 C 706,6652 758,6840 840,7048 C 922,7256 988,7412 1034,7548 C 1080,7684 1096,7800 1104,7900"
        fill="none" stroke="#D5D9E2" stroke-width="0.4" opacity="0.2" stroke-linecap="round" stroke-linejoin="round"/>
  <path d="M 738,6560 C 762,6668 810,6850 888,7052 C 966,7254 1030,7408 1074,7542 C 1118,7676 1132,7790 1140,7900"
        fill="none" stroke="#D5D9E2" stroke-width="0.4" opacity="0.2" stroke-linecap="round" stroke-linejoin="round"/>
  <!-- Index -->
  <path d="M 794,6580 C 816,6684 860,6860 934,7056 C 1008,7252 1070,7404 1112,7536 C 1154,7668 1166,7780 1174,7900"
        fill="none" stroke="#BFC5D1" stroke-width="1.0" opacity="0.4" stroke-linecap="round" stroke-linejoin="round"/>
  <path d="M 848,6600 C 868,6700 908,6870 978,7060 C 1048,7250 1108,7400 1148,7530 C 1188,7660 1198,7770 1206,7900"
        fill="none" stroke="#D5D9E2" stroke-width="0.4" opacity="0.18" stroke-linecap="round" stroke-linejoin="round"/>
  <path d="M 900,6620 C 918,6716 954,6880 1020,7064 C 1086,7248 1144,7396 1182,7524 C 1220,7652 1228,7760 1236,7900"
        fill="none" stroke="#D5D9E2" stroke-width="0.4" opacity="0.18" stroke-linecap="round" stroke-linejoin="round"/>

  <!-- Eastern final contours -->
  <path d="M 1400,6600 C 1380,6780 1340,7060 1320,7360 C 1300,7660 1310,7820 1320,7900"
        fill="none" stroke="#D5D9E2" stroke-width="0.4" opacity="0.18" stroke-linecap="round" stroke-linejoin="round"/>
  <path d="M 1620,6580 C 1596,6770 1548,7060 1524,7370 C 1500,7680 1512,7830 1524,7900"
        fill="none" stroke="#D5D9E2" stroke-width="0.4" opacity="0.18" stroke-linecap="round" stroke-linejoin="round"/>
  <!-- Index — east final -->
  <path d="M 1840,6560 C 1812,6760 1756,7060 1728,7380 C 1700,7700 1714,7840 1728,7900"
        fill="none" stroke="#BFC5D1" stroke-width="1.0" opacity="0.35" stroke-linecap="round" stroke-linejoin="round"/>
  <path d="M 2060,6540 C 2028,6750 1964,7060 1932,7390 C 1900,7720 1916,7850 1932,7900"
        fill="none" stroke="#D5D9E2" stroke-width="0.4" opacity="0.15" stroke-linecap="round" stroke-linejoin="round"/>

  <!-- Valley floor — far west, very sparse -->
  <path d="M 200,1200 C 220,1600 260,2400 280,3200 C 300,4000 290,4800 270,5600 C 250,6400 240,7000 230,7600"
        fill="none" stroke="#D5D9E2" stroke-width="0.4" opacity="0.12" stroke-linecap="round" stroke-linejoin="round"/>
  <path d="M 340,800 C 356,1300 380,2200 392,3100 C 404,4000 396,4900 380,5800 C 364,6700 354,7200 348,7800"
        fill="none" stroke="#D5D9E2" stroke-width="0.4" opacity="0.15" stroke-linecap="round" stroke-linejoin="round"/>

  <!-- Far east — foothills, very sparse -->
  <path d="M 2200,600 C 2180,1200 2140,2200 2120,3400 C 2100,4600 2120,5600 2160,6600 C 2200,7400 2220,7800 2240,8000"
        fill="none" stroke="#D5D9E2" stroke-width="0.4" opacity="0.12" stroke-linecap="round" stroke-linejoin="round"/>
  <path d="M 2440,400 C 2416,1100 2370,2200 2348,3500 C 2326,4800 2348,5900 2394,6900 C 2440,7600 2462,7900 2480,8000"
        fill="none" stroke="#D5D9E2" stroke-width="0.4" opacity="0.1" stroke-linecap="round" stroke-linejoin="round"/>
</svg>
